<?xml version="1.0" encoding="utf-8" ?>
<svg baseProfile="tiny" height="500" version="1.2" width="500" xmlns="http://www.w3.org/2000/svg" xmlns:ev="http://www.w3.org/2001/xml-events" xmlns:xlink="http://www.w3.org/1999/xlink"><defs /><polygon fill="black" points="298,287 298,288 297,289 296,289 296,290 295,291 294,291 294,292 292,294 291,294 291,295 288,298 287,298 287,299 286,300 285,300 285,301 268,318 268,320 297,349 297,350 298,350 301,353 301,354 302,354 303,355 303,356 304,356 307,359 307,360 308,360 309,361 309,362 310,362 311,363 311,364 312,364 313,365 313,366 314,366 315,367 315,368 374,368 374,367 373,367 372,366 372,365 369,362 368,362 367,361 367,360 358,351 358,350 357,350 356,349 356,348 355,348 354,347 354,346 353,346 352,345 352,344 343,335 343,334 342,334 341,333 341,332 340,332 339,331 339,330 327,318 327,317 326,317 325,316 325,315 315,305 315,304 314,304 313,303 313,302 312,302 311,301 311,300 310,300 309,299 309,298 301,290 301,289 299,287" /><polygon fill="black" points="200,287 190,297 190,298 189,299 188,299 188,300 187,301 186,301 186,302 185,303 184,303 184,304 177,311 177,312 176,313 175,313 175,314 174,315 173,315 173,316 172,317 171,317 171,318 170,319 169,319 169,320 155,334 155,335 149,341 149,342 148,343 147,343 147,344 146,345 145,345 145,346 144,347 143,347 141,349 141,350 127,364 127,365 125,367 125,368 182,368 183,367 184,367 184,366 185,365 186,365 186,364 187,363 188,363 188,362 189,361 190,361 190,360 191,359 192,359 193,358 193,357 194,356 195,356 195,355 196,354 197,354 197,353 198,352 199,352 199,351 200,350 201,350 201,349 202,348 203,348 203,347 204,346 205,346 208,343 208,342 209,341 210,341 210,340 211,339 212,339 212,338 213,337 214,337 214,336 215,335 216,335 216,334 217,333 218,333 221,330 221,329 222,328 223,328 223,327 224,326 225,326 225,325 226,324 227,324 227,323 228,322 229,322 229,321 230,320 231,320 231,319 216,304 216,303 215,303 214,302 214,301 213,301 212,300 212,299 211,299 210,298 210,297" /><polygon fill="black" points="353,212 350,215 350,216 349,217 348,217 348,218 333,233 333,234 329,238 328,238 326,240 326,241 325,242 324,242 324,243 323,244 322,244 322,245 313,254 313,256 324,267 324,268 325,268 328,271 328,272 329,272 330,273 330,274 331,274 332,275 332,276 333,276 336,279 336,280 354,298 354,212" /><polygon fill="black" points="144,211 144,298 145,298 145,297 146,296 147,296 147,295 148,294 149,294 149,293 150,292 151,292 151,291 174,268 174,267 186,255 180,249 180,248 179,248 178,247 178,246 158,226 158,225 157,225 151,219 151,218 150,218 149,217 149,216" /><polygon fill="black" points="243,205 243,214 242,215 241,215 240,216 237,216 236,217 235,217 234,218 233,218 232,219 231,219 228,222 227,222 227,223 225,225 225,228 224,229 224,230 223,231 223,242 224,243 224,245 225,246 225,248 227,250 227,251 228,251 229,252 229,253 230,253 231,254 231,255 232,255 233,256 234,256 235,257 237,257 239,259 243,259 244,260 246,260 247,261 252,261 253,262 256,262 258,264 260,264 261,265 261,266 262,267 262,269 263,270 263,271 262,272 262,275 261,276 261,277 260,278 259,278 258,279 257,279 256,280 252,280 251,281 248,281 247,280 243,280 242,279 241,279 240,278 239,278 238,277 238,276 237,275 237,273 236,272 236,270 230,270 229,269 223,269 223,277 224,278 224,279 225,280 225,282 227,284 227,285 230,288 231,288 233,290 235,290 236,291 238,291 239,292 242,292 243,293 243,302 255,302 255,293 256,292 260,292 261,291 262,291 263,290 265,290 267,288 268,288 269,287 270,287 270,286 271,285 272,285 272,284 274,282 274,279 275,278 275,277 276,276 276,266 275,265 275,263 274,262 274,260 272,258 272,257 270,255 269,255 266,252 265,252 264,251 263,251 262,250 258,250 257,249 256,249 255,248 250,248 249,247 248,247 247,246 243,246 241,244 240,244 237,241 237,240 236,239 236,234 237,233 237,232 238,231 238,230 239,229 241,229 243,227 255,227 257,229 258,229 261,232 261,233 262,234 262,237 275,237 275,232 274,231 274,228 273,227 273,226 272,225 272,224 270,222 270,221 269,221 266,218 265,218 264,217 262,217 261,216 258,216 257,215 256,215 255,214 255,205" /><polygon fill="black" points="314,143 278,179 278,180 277,181 276,181 276,182 275,183 274,183 272,185 272,186 268,190 268,191 270,193 271,193 272,194 272,195 273,195 274,196 274,197 275,197 276,198 276,199 277,199 278,200 278,201 285,208 286,208 287,209 287,210 288,210 289,211 289,212 290,212 291,213 291,214 298,221 300,221 305,216 305,215 306,214 307,214 307,213 308,212 309,212 309,211 310,210 311,210 311,209 312,208 313,208 313,207 314,206 315,206 315,205 324,196 324,195 333,186 333,185 334,184 335,184 335,183 336,182 337,182 337,181 338,180 339,180 344,175 344,174 352,166 352,165 353,164 354,164 354,163 355,162 356,162 356,161 370,147 370,146 371,145 372,145 372,144 373,143" /><polygon fill="black" points="126,143 127,144 127,145 128,145 129,146 129,147 130,147 131,148 131,149 132,149 133,150 133,151 143,161 143,162 144,162 145,163 145,164 153,172 153,173 154,173 155,174 155,175 160,180 161,180 162,181 162,182 169,189 169,190 181,202 181,203 192,214 192,215 193,215 194,216 194,217 198,221 200,221 216,205 216,204 229,191 229,188 228,188 227,187 227,186 226,186 225,185 225,184 224,184 223,183 223,182 222,182 220,180 220,179 219,179 218,178 218,177 217,177 216,176 216,175 215,175 214,174 214,173 184,143" /></svg>